<svg width="25" height="24" viewBox="0 0 25 24" fill="none" xmlns="http://www.w3.org/2000/svg">
<path d="M12.4978 0.314634C12.6616 -0.104878 13.2392 -0.104878 13.403 0.314634L16.3052 7.74599C16.3749 7.92463 16.538 8.04645 16.7248 8.05947L24.4949 8.60122C24.9336 8.63181 25.112 9.19662 24.7746 9.48647L18.7981 14.6211C18.6545 14.7445 18.5922 14.9416 18.6379 15.1283L20.5379 22.8945C20.6452 23.3329 20.1779 23.6819 19.8056 23.4416L13.2097 19.1836C13.0512 19.0812 12.8496 19.0812 12.691 19.1836L6.09519 23.4416C5.72285 23.6819 5.2556 23.3329 5.36286 22.8945L7.26289 15.1283C7.30857 14.9416 7.24629 14.7445 7.10261 14.6211L1.12612 9.48647C0.788735 9.19662 0.967208 8.63181 1.40584 8.60122L9.17598 8.05947C9.36277 8.04645 9.52583 7.92463 9.5956 7.74599L12.4978 0.314634Z" fill="#BDBDBD"/>
<path fill-rule="evenodd" clip-rule="evenodd" d="M8.2 8.15991V22.1152L6.09519 23.474C5.72285 23.7143 5.2556 23.3653 5.36286 22.9268L7.26289 15.1607C7.30857 14.974 7.24629 14.7769 7.10261 14.6534L1.12612 9.51887C0.788735 9.22901 0.967208 8.6642 1.40584 8.63362L8.2 8.15991Z" fill="#FFCC21"/>
<path fill-rule="evenodd" clip-rule="evenodd" d="M12.9999 0.00250682V19.1094C12.8938 19.0983 12.7849 19.123 12.691 19.1836L6.09519 23.4416C5.72285 23.6819 5.2556 23.3329 5.36286 22.8945L7.26289 15.1283C7.30857 14.9416 7.24629 14.7445 7.10261 14.6211L1.12612 9.48647C0.788735 9.19662 0.967208 8.63181 1.40584 8.60122L9.17598 8.05947C9.36277 8.04645 9.52583 7.92463 9.5956 7.74599L12.4978 0.314634C12.587 0.0861553 12.7989 -0.0178873 12.9999 0.00250682Z" fill="#FFCC21"/>
<path fill-rule="evenodd" clip-rule="evenodd" d="M13.403 0.314634C13.2392 -0.104878 12.6616 -0.104878 12.4978 0.314634L9.5956 7.74599C9.52583 7.92463 9.36277 8.04645 9.17598 8.05947L1.40584 8.60122C0.967208 8.63181 0.788735 9.19662 1.12612 9.48647L7.10261 14.6211C7.24629 14.7445 7.30857 14.9416 7.26289 15.1283L5.36286 22.8945C5.2556 23.3329 5.72285 23.6819 6.09519 23.4416L12.691 19.1836C12.8496 19.0812 13.0512 19.0812 13.2097 19.1836L17.7999 22.1468V8.13444L16.7248 8.05947C16.538 8.04645 16.3749 7.92463 16.3052 7.74599L13.403 0.314634Z" fill="#FFCC21"/>
</svg>
