<svg width="56" height="26" viewBox="0 0 56 26" fill="none" xmlns="http://www.w3.org/2000/svg">
<g clip-path="url(#clip0)">
<path d="M3.00042 0.999939H53.0005C54.1051 0.999939 55.0004 1.89523 55.0004 2.99994V22.9997C55.0004 24.1045 54.105 25 53.0005 25H3.00042C1.89599 25 1.00049 24.1045 1.00049 22.9997V2.99994C1.00049 1.89525 1.89588 0.999939 3.00042 0.999939Z" fill="#FF0000" stroke="#FFF000" stroke-width="2"/>
<path d="M10.4565 19.3333H12.6965V14.5813C12.6965 13.2213 12.5205 11.7333 12.4085 10.4533H12.4885L13.6885 12.9973L17.1125 19.3333H19.5125V7.49331H17.2725V12.2133C17.2725 13.5573 17.4485 15.1253 17.5765 16.3573H17.4965L16.3125 13.7973L12.8725 7.49331H10.4565V19.3333ZM22.4409 19.3333H29.8809V17.3493H24.8089V14.1813H28.9689V12.1973H24.8089V9.46131H29.7049V7.49331H22.4409V19.3333ZM33.4046 19.3333H36.3006L37.5966 13.4773C37.7886 12.5493 37.9486 11.6373 38.1086 10.7413H38.1726C38.3166 11.6373 38.4926 12.5493 38.6846 13.4773L40.0126 19.3333H42.9566L45.1486 7.49331H42.8926L41.9646 13.2693C41.7886 14.5013 41.6126 15.7653 41.4366 17.0453H41.3566C41.1006 15.7653 40.8606 14.4853 40.6046 13.2693L39.2286 7.49331H37.2126L35.8366 13.2693C35.5806 14.5013 35.3246 15.7813 35.0846 17.0453H35.0206C34.8446 15.7813 34.6526 14.5173 34.4766 13.2693L33.5326 7.49331H31.1166L33.4046 19.3333Z" fill="#FFF000"/>
</g>
<defs>
<clipPath id="clip0">
<rect width="56" height="26" fill="white" transform="translate(0.000488281)"/>
</clipPath>
</defs>
</svg>
